<?xml version="1.0" standalone="no"?>
<!DOCTYPE svg PUBLIC "-//W3C//DTD SVG 20010904//EN"
 "http://www.w3.org/TR/2001/REC-SVG-20010904/DTD/svg10.dtd">
<svg version="1.0" xmlns="http://www.w3.org/2000/svg"
 width="510.000000pt" height="340.000000pt" viewBox="0 0 510.000000 340.000000"
 preserveAspectRatio="xMidYMid meet">

<g transform="translate(0.000000,340.000000) scale(0.100000,-0.100000)"
fill="#000000" stroke="none">
<path d="M770 2439 c-89 -10 -122 -23 -114 -43 7 -17 64 -42 120 -51 72 -12
69 -17 -23 -39 -89 -22 -143 -47 -143 -66 0 -16 58 -41 110 -47 58 -7 57 -16
-4 -33 -25 -7 -53 -21 -63 -32 -17 -19 -17 -21 6 -40 14 -10 37 -22 52 -25 18
-3 26 -10 22 -19 -8 -20 41 -62 82 -70 26 -4 39 -13 45 -30 11 -28 65 -64 98
-64 19 0 21 -4 16 -25 -9 -37 53 -95 102 -95 23 0 37 -6 41 -17 8 -21 52 -60
76 -69 11 -3 16 -12 13 -20 -11 -29 12 -61 58 -80 25 -11 46 -22 46 -26 0 -4
19 -20 43 -34 23 -15 58 -44 77 -65 20 -22 46 -40 60 -42 30 -2 49 -24 50 -54
0 -18 26 -57 106 -161 1 -2 9 -5 18 -6 8 -1 26 -13 40 -27 13 -13 29 -28 35
-34 6 -5 21 -22 32 -37 11 -16 29 -28 40 -28 24 0 55 -16 83 -41 11 -11 26
-19 35 -19 8 0 22 -7 31 -15 13 -12 27 -13 76 -4 56 10 62 13 87 56 15 25 36
47 47 50 27 7 46 71 56 194 3 41 7 76 9 79 2 3 0 12 -5 19 -6 10 -12 7 -24
-15 -23 -43 -19 -10 4 36 40 78 15 109 -27 34 l-22 -39 2 37 c1 20 10 45 20
55 31 32 87 108 87 118 -1 6 -10 -2 -21 -17 -27 -36 -48 -37 -44 -1 3 25 2 26
-11 8 -14 -18 -14 -18 -14 0 0 16 -6 13 -35 -15 -19 -19 -35 -29 -35 -24 0 5
18 27 40 49 22 21 38 41 35 43 -2 3 4 16 15 29 10 13 17 30 14 37 -3 8 7 23
22 35 l28 22 12 -28 c7 -15 13 -22 13 -15 1 21 31 -13 31 -35 0 -33 21 -96 29
-87 15 16 81 235 81 267 0 28 -10 40 -80 95 -50 39 -109 101 -160 165 -44 56
-99 126 -122 155 -44 54 -135 119 -197 140 -42 15 -116 15 -142 1 -15 -7 -58
-6 -156 5 -149 18 -666 20 -803 5z m257 -135 c-9 -9 -107 -54 -107 -49 0 8 85
55 99 55 8 0 12 -3 8 -6z m-17 -109 c0 -5 -115 -65 -124 -65 -3 0 7 13 22 29
15 16 41 31 57 34 17 2 33 5 38 6 4 0 7 -1 7 -4z m15 -129 c-56 -33 -87 -42
-79 -22 3 8 27 22 52 30 67 20 72 19 27 -8z m190 -41 c-22 -19 -62 -47 -89
-61 l-50 -27 20 32 c14 24 33 38 73 52 30 10 59 23 65 29 5 5 12 10 16 10 3
-1 -13 -16 -35 -35z m119 -66 c-39 -41 -110 -98 -100 -79 23 40 58 80 70 80 8
0 19 7 26 15 7 8 17 15 23 15 6 0 -2 -14 -19 -31z m867 -112 c-10 -9 -11 -8
-5 6 3 10 9 15 12 12 3 -3 0 -11 -7 -18z m-34 -192 c0 -8 -2 -13 -5 -10 -2 2
-13 -6 -24 -18 -16 -18 -16 -16 2 11 24 36 27 38 27 17z m23 -139 c0 -2 -8
-10 -17 -17 -16 -13 -17 -12 -4 4 13 16 21 21 21 13z m-55 -166 c9 8 11 4 7
-15 -6 -32 -22 -43 -22 -15 0 12 -4 18 -10 15 -6 -4 -7 1 -3 11 4 12 8 14 11
6 3 -9 8 -10 17 -2z m35 -30 c-6 -11 -13 -20 -16 -20 -2 0 0 9 6 20 6 11 13
20 16 20 2 0 0 -9 -6 -20z m-24 -64 c-8 -19 -12 -37 -8 -40 3 -3 -2 -6 -11 -6
-12 0 -17 9 -17 28 0 25 7 32 48 51 1 0 -4 -14 -12 -33z m-66 -58 c0 -33 -17
-19 -18 14 -1 23 2 28 8 18 6 -8 10 -23 10 -32z"/>
<path d="M3545 2439 c-63 -10 -174 -12 -244 -3 -69 8 -115 -6 -199 -61 -63
-40 -84 -62 -178 -190 -72 -98 -127 -156 -205 -218 -67 -53 -79 -66 -79 -92 1
-36 88 -299 89 -267 1 12 6 22 12 22 6 0 9 7 5 15 -3 8 -1 15 5 15 7 0 9 10 5
25 -4 17 -1 31 9 41 11 12 15 12 16 2 0 -7 6 0 13 15 l12 28 27 -21 c15 -12
27 -29 27 -39 0 -9 7 -27 16 -39 8 -12 12 -22 8 -22 -5 0 7 -16 26 -35 18 -18
36 -33 39 -32 7 2 11 -7 11 -25 0 -7 -15 2 -32 19 -31 28 -34 29 -49 13 -8 -9
-13 -22 -11 -28 7 -21 -9 -13 -41 21 -25 27 -28 28 -17 7 7 -14 19 -30 27 -35
8 -6 19 -21 26 -34 7 -14 19 -27 27 -29 13 -5 13 -3 0 14 -10 14 -10 16 0 7 7
-7 15 -36 17 -65 l3 -53 -27 48 c-16 29 -30 44 -36 38 -13 -13 2 -69 21 -81 9
-5 13 -10 9 -10 -5 0 1 -17 12 -37 l22 -38 -31 33 c-16 17 -32 32 -35 32 -7 0
2 -139 14 -198 12 -57 28 -95 39 -88 4 2 18 -12 32 -31 14 -19 32 -43 40 -54
22 -28 117 -44 140 -24 9 8 23 15 32 15 8 0 32 13 53 30 21 17 47 30 59 30 14
0 45 24 83 65 34 36 68 65 76 65 8 0 23 12 33 27 10 14 26 33 34 42 27 29 50
70 50 89 0 27 24 55 51 59 13 1 38 19 56 39 17 19 52 49 77 65 25 15 46 33 46
39 0 5 8 10 18 10 9 0 35 12 56 26 32 22 37 30 33 53 -5 23 0 30 34 49 22 13
45 34 51 48 9 18 19 24 44 24 47 0 109 59 100 95 -5 20 -3 25 13 25 38 0 90
32 100 62 6 15 17 28 25 28 9 0 34 7 56 16 31 12 42 23 46 44 4 19 15 30 39
39 18 6 39 18 45 26 18 22 -10 50 -66 65 -52 15 -67 30 -29 30 41 0 113 21
126 37 22 25 -19 52 -119 75 -51 12 -92 25 -92 29 0 3 21 9 46 13 97 13 170
65 111 80 -99 25 -727 36 -852 15z m563 -151 c7 -6 11 -13 9 -15 -5 -5 -77 26
-77 33 0 9 52 -6 68 -18z m27 -103 c14 -3 25 -10 25 -17 0 -6 8 -17 18 -24 33
-26 -4 -13 -63 22 -59 34 -58 35 20 19z m-14 -137 c5 -7 6 -14 5 -16 -6 -5
-68 24 -91 41 -18 15 -16 15 29 1 28 -8 53 -20 57 -26z m-189 -38 c27 -8 39
-18 47 -41 l10 -30 -47 26 c-26 14 -65 41 -87 61 l-40 35 40 -21 c22 -11 56
-25 77 -30z m-164 -50 c13 0 67 -68 60 -75 -7 -7 -87 64 -100 88 -11 21 -10
21 9 5 11 -10 25 -18 31 -18z m-888 -115 c14 -19 14 -19 -2 -6 -10 7 -18 18
-18 24 0 6 1 8 3 6 1 -2 9 -13 17 -24z m54 -214 c-4 -3 -9 0 -11 7 -3 6 -10 9
-15 6 -7 -4 -8 -2 -4 5 6 9 11 9 22 0 8 -6 12 -15 8 -18z m16 -314 c0 -18 -2
-19 -10 -7 -13 20 -13 43 0 35 6 -3 10 -16 10 -28z m-6 -43 c20 -8 22 -64 3
-64 -8 0 -14 6 -14 13 0 6 -3 22 -7 35 -8 24 -6 25 18 16z m62 -92 c-12 -11
-17 7 -9 34 l8 29 3 -28 c2 -16 1 -31 -2 -35z"/>
<path d="M2265 1379 c-4 -6 -5 -12 -2 -15 2 -3 7 2 10 11 7 17 1 20 -8 4z"/>
<path d="M2801 1385 c1 -19 18 -51 18 -35 0 8 -4 22 -9 30 -5 8 -9 11 -9 5z"/>
</g>
</svg>
